# xmcd
#
# Track frame offsets: 
#        150
#        15540
#        34393
#        51654
#        67155
#        85211
#        100288
#        114430
#        134901
#        149903
#        166909
#        181703
#        197014
#        212143
#        228588
#        242770
#        259896
#        278416
#        293168
#        307384
#        325667
#
# Disc length: 4531 seconds
#
# Revision: 2
# Processed by: cddbd v1.5.2PL0 Copyright (c) Steve Scherf et al.
# Submitted via: ExactAudioCopy v1.0b3
#
DISCID=4d11b115
DTITLE=Various Artist - Black magic #3 - The best of R&B, urban, soul
DTITLE=and hip hop
DYEAR=2011
DGENRE=R&B
TTITLE0=Sean Paul - Alexis Jordan - Got 2 luv U
TTITLE1=Rihanna - California king bed
TTITLE2=Usher - More
TTITLE3=Jason Derulo - Don't wanna go home
TTITLE4=Chris Brown - Yeah 3x
TTITLE5=Flo Rida - Akon - Who dat girl
TTITLE6=Taio Cruz - Kylie Minogue - Higher
TTITLE7=Wiz Khalifa - Too Short - On my level
TTITLE8=Iyaz - So big
TTITLE9=Culcha Candela - Berlin city girl
TTITLE10=Mann - Buzzin'
TTITLE11=Travie McCoy - Need you
TTITLE12=Colonel Reyel - Celui...
TTITLE13=Cee-Lo Green - Bright lights, bigger city
TTITLE14=Y'akoto - Tamba
TTITLE15=Toni Braxton - Pulse
TTITLE16=Jaheim - Put that woman first
TTITLE17=Rumer - Aretha
TTITLE18=Jessie J - B.o.B - Price tag
TTITLE19=Aloe Blacc - I need a dollar
TTITLE20=Bruno Mars - The lazy song
EXTD=
EXTT0=
EXTT1=
EXTT2=
EXTT3=
EXTT4=
EXTT5=
EXTT6=
EXTT7=
EXTT8=
EXTT9=
EXTT10=
EXTT11=
EXTT12=
EXTT13=
EXTT14=
EXTT15=
EXTT16=
EXTT17=
EXTT18=
EXTT19=
EXTT20=
PLAYORDER=
